<?xml version="1.0" standalone="no"?>
<!DOCTYPE svg PUBLIC "-//W3C//DTD SVG 1.1//EN"
  "http://www.w3.org/Graphics/SVG/1.1/DTD/svg11.dtd">
<svg width="110mm" height="110mm" viewBox="-42 -57 110 110" xmlns="http://www.w3.org/2000/svg" version="1.1">
	<title>svgOutput</title>
	<desc>made with tinkercad</desc>
<path d="M -17.000999450683594 42.89899826049805 L -21.256999969482422 39.74300003051758 L -25.18400001525879 36.183998107910156 L -28.743000030517578 32.25699996948242 L -31.89900016784668 28.000999450683594 L -34.624000549316406 23.454999923706055 L -36.888999938964844 18.665000915527344 L -38.67499923706055 13.675000190734863 L -39.96200180053711 8.53499984741211 L -40.7400016784668 3.2929999828338623 L -40.901756286621094 1.1102230246251565e-16 L -41 -2 L -40.7400016784668 -7.293000221252441 L -39.96200180053711 -12.53499984741211 L -38.67499923706055 -17.674999237060547 L -36.888999938964844 -22.665000915527344 L -34.624000549316406 -27.454999923706055 L -31.89900016784668 -32.000999450683594 L -28.743000030517578 -36.25699996948242 L -25.18400001525879 -40.183998107910156 L -21.256999969482422 -43.74300003051758 L -17.000999450683594 -46.89899826049805 L -12.454999923706055 -49.624000549316406 L -7.664999961853027 -51.888999938964844 L -2.674999952316284 -53.67499923706055 L 0 -54.344791412353516 L 2.4649999141693115 -54.96200180053711 L 3.697999954223633 -55.144996643066406 L 7.706999778747559 -55.7400016784668 L 13 -56 L 18.292999267578125 -55.7400016784668 L 22.30299949645996 -55.14484786987305 L 23.53499984741211 -54.96200180053711 L 28.674999237060547 -53.67499923706055 L 32.768001556396484 -52.21004867553711 L 33.665000915527344 -51.888999938964844 L 38.45500183105469 -49.624000549316406 L 43.000999450683594 -46.89899826049805 L 47.25699996948242 -43.74300003051758 L 51.183998107910156 -40.183998107910156 L 54.74300003051758 -36.25699996948242 L 57.89899826049805 -32.000999450683594 L 60.624000549316406 -27.454999923706055 L 62.888999938964844 -22.665000915527344 L 64.67500305175781 -17.674999237060547 L 65.53600311279297 -14.23635196685791 L 65.96199798583984 -12.53499984741211 L 66.73999786376953 -7.293000221252441 L 67 -2 L 66.9017562866211 1.1102230246251565e-16 L 66.73999786376953 3.2929999828338623 L 65.96199798583984 8.53499984741211 L 65.53600311279297 10.23635196685791 L 64.67500305175781 13.675000190734863 L 62.888999938964844 18.665000915527344 L 60.624000549316406 23.454999923706055 L 57.89899826049805 28.000999450683594 L 54.74300003051758 32.25699996948242 L 51.183998107910156 36.183998107910156 L 47.25699996948242 39.74300003051758 L 43.000999450683594 42.89899826049805 L 38.45500183105469 45.624000549316406 L 33.665000915527344 47.888999938964844 L 32.768001556396484 48.21004867553711 L 28.674999237060547 49.67499923706055 L 23.53499984741211 50.96200180053711 L 22.30299949645996 51.14484786987305 L 18.292999267578125 51.7400016784668 L 13 52 L 7.706999778747559 51.7400016784668 L 3.697999954223633 51.144996643066406 L 2.4649999141693115 50.96200180053711 L 0 50.344791412353516 L -2.674999952316284 49.67499923706055 L -7.664999961853027 47.888999938964844 L -12.454999923706055 45.624000549316406 L -17.000999450683594 42.89899826049805 M 3.697999954223633 -15.102599143981934 L 3.697999954223633 1.1102230246251565e-16 L 3.697999954223633 11.501501083374023 L 8.497401237487793 15.501999855041504 L 18.634916305541992 15.501999855041504 L 22.30299949645996 11.101399421691895 L 22.30299949645996 1.1102230246251565e-16 L 22.30299949645996 -15.834083557128906 L 17.902599334716797 -19.50200080871582 L 7.365082740783691 -19.50200080871582 L 3.697999954223633 -15.102599143981934 z" fill="none" stroke="rgb(0,0,255)" stroke-width="0.01mm" />
</svg>