<?xml version="1.0" standalone="no"?>
<!DOCTYPE svg PUBLIC "-//W3C//DTD SVG 1.1//EN"
  "http://www.w3.org/Graphics/SVG/1.1/DTD/svg11.dtd">
<svg width="85.84800004959106mm" height="119.69999694824219mm" viewBox="-89 -95.69999694824219 85.84800004959106 119.69999694824219" xmlns="http://www.w3.org/2000/svg" version="1.1">
	<title>svgOutput</title>
	<desc>made with tinkercad</desc>
<path d="M -37 -50.720001220703125 L -37 -47.722999572753906 L -37 -45.358001708984375 L -37 -25.363000869750977 L -37 -22.99799919128418 L -37 -20 L -46 -20 L -46 -22.99799919128418 L -46 -25.363000869750977 L -46 -45.358001708984375 L -46 -47.722999572753906 L -46 -50.720001220703125 L -37 -50.720001220703125 M -15.64881420135498 -48.21200180053711 L -16.276914596557617 -50.720001220703125 L -16.468000411987305 -51.483001708984375 L -18.24799919128418 -56.45800018310547 L -20.507999420166016 -61.236000061035156 L -21 -62.056846618652344 L -23.085344314575195 -65.53600311279297 L -23.225000381469727 -65.76899719238281 L -26.37299919128418 -70.01399993896484 L -29.128419876098633 -73.05358123779297 L -28.840559005737305 -73.34143829345703 L -28.167316436767578 -74.01468658447266 L -27.676000595092773 -74.50599670410156 L -27.67620086669922 -74.5062026977539 L -29.345199584960938 -76.17520141601562 L -29.345399856567383 -76.17539978027344 L -29.418563842773438 -76.10224914550781 L -30.26230239868164 -75.25862884521484 L -30.716053009033203 -74.80493927001953 L -30.759000778198242 -74.76200103759766 L -30.75874900817871 -74.76174926757812 L -30.75853729248047 -74.76153564453125 L -30.79745101928711 -74.72262573242188 L -30.797672271728516 -74.72283172607422 L -30.797937393188477 -74.72306823730469 L -31 -74.90625 L -33.30961608886719 -77 L -33.8380012512207 -77.47899627685547 L -35.88903045654297 -79 L -38.08300018310547 -80.62699890136719 L -42.61600112915039 -83.34400177001953 L -44.003211975097656 -84 L -47.393001556396484 -85.60299682617188 L -52.36899948120117 -87.38400268554688 L -57.49599838256836 -88.66799926757812 L -62.722999572753906 -89.44300079345703 L -65.53600311279297 -89.58154296875 L -68.00199890136719 -89.7030029296875 L -73.27999877929688 -89.44300079345703 L -78.50800323486328 -88.66799926757812 L -83.63400268554688 -87.38400268554688 L -88 -85.82132720947266 L -88 -86.29036712646484 L -88 -87.26090240478516 L -88 -88.71788024902344 L -88 -89.7030029296875 L -88 -91.12286376953125 L -85.08499908447266 -92.16600036621094 L -79.48300170898438 -93.56900024414062 L -73.7699966430664 -94.41699981689453 L -68.00199890136719 -94.69999694824219 L -65.53600311279297 -94.57903289794922 L -62.233001708984375 -94.41699981689453 L -56.520999908447266 -93.56900024414062 L -50.917999267578125 -92.16600036621094 L -45.48099899291992 -90.22000122070312 L -44.38774108886719 -89.7030029296875 L -44.09648513793945 -89.56526184082031 L -40.2599983215332 -87.7509994506836 L -38.939491271972656 -86.95960235595703 L -35.305999755859375 -84.78199768066406 L -34.25166320800781 -84 L -34.07284164428711 -83.86737060546875 L -30.667999267578125 -81.34200286865234 L -28.083890914916992 -79 L -26.38800048828125 -77.46299743652344 L -25.9683895111084 -77 L -25.59464454650879 -76.58760833740234 L -25.594524383544922 -76.58747863769531 L -22.510000228881836 -73.18399810791016 L -21 -71.14769744873047 L -19.06999969482422 -68.54499816894531 L -17.266300201416016 -65.53600311279297 L -16.10099983215332 -63.59199905395508 L -15.441987991333008 -62.199005126953125 L -14.14900016784668 -59.4659309387207 L -13.630999565124512 -58.37099838256836 L -11.785074234008789 -53.209999084472656 L -11.755422592163086 -53.209999084472656 L -11.153611183166504 -53.209999084472656 L -10.003747940063477 -53.209999084472656 L -9.152000427246094 -53.209999084472656 L -4.1519999504089355 -53.209999084472656 L -4.1519999504089355 -50.720001220703125 L -4.1519999504089355 -48.21200180053711 L -4.1519999504089355 -45.847999572753906 L -4.1519999504089355 -25.851999282836914 L -4.1519999504089355 -23.48699951171875 L -4.1519999504089355 -20 L -4.1519999504089355 -18.489999771118164 L -9.152000427246094 -18.489999771118164 L -9.877669334411621 -18.489999771118164 L -11.189385414123535 -18.489999771118164 L -11.785074234008789 -18.489999771118164 L -13.630999565124512 -13.329000473022461 L -14.14900016784668 -12.23406982421875 L -16.10099983215332 -8.107999801635742 L -19.06999969482422 -3.1549999713897705 L -21 -0.5523052215576171 L -21.409555435180664 1.1102230246251565e-16 L -22.510000228881836 1.4839999675750732 L -23.544166564941406 2.6251025199890137 L -26.38800048828125 5.763000011444092 L -27.522104263305664 6.790848731994629 L -30.667999267578125 9.642000198364258 L -31 9.888243675231934 L -31.9040584564209 10.558783531188965 L -32.498931884765625 11 L -35.305999755859375 13.081999778747559 L -36.627197265625 13.873811721801758 L -40.174903869628906 16 L -40.2599983215332 16.051000595092773 L -41.64242172241211 16.704744338989258 L -44.38774108886719 18.003000259399414 L -45.48099899291992 18.520000457763672 L -50.917999267578125 20.465999603271484 L -56.520999908447266 21.868999481201172 L -62.233001708984375 22.716999053955078 L -65.53600311279297 22.879030227661133 L -68.00199890136719 23 L -73.7699966430664 22.716999053955078 L -79.48300170898438 21.868999481201172 L -85.08499908447266 20.465999603271484 L -88 19.422861099243164 L -88 18.003000259399414 L -88 16.283456802368164 L -88 16 L -88 14.874184608459473 L -88 14.19140338897705 L -88 14.121330261230469 L -83.63400268554688 15.684000015258789 L -82.3724594116211 16 L -78.50800323486328 16.968000411987305 L -73.27999877929688 17.743000030517578 L -68.00199890136719 18.003000259399414 L -65.53600311279297 17.881546020507812 L -62.722999572753906 17.743000030517578 L -57.49599838256836 16.968000411987305 L -53.63078689575195 16 L -52.36899948120117 15.684000015258789 L -47.393001556396484 13.902999877929688 L -42.61600112915039 11.644000053405762 L -41.541561126708984 11 L -38.08300018310547 8.927000045776367 L -33.8380012512207 5.7789998054504395 L -31 3.206247091293335 L -30.798458099365234 3.0235419273376465 L -30.51055908203125 3.311441421508789 L -29.837316513061523 3.9846832752227783 L -29.34600067138672 4.47599983215332 L -29.345800399780273 4.475799560546875 L -27.67729949951172 2.806300401687622 L -27.677099227905273 2.8061001300811768 L -27.749753952026367 2.7334353923797607 L -28.593372344970703 1.889697790145874 L -29.047119140625 1.4358874559402466 L -29.09000015258789 1.3930000066757202 L -29.09025001525879 1.3932501077651978 L -29.09046173095703 1.3934621810913086 L -29.12933349609375 1.3545877933502197 L -29.129131317138672 1.354365348815918 L -29.12889289855957 1.3541016578674316 L -27.901382446289062 1.1102230246251565e-16 L -26.37299919128418 -1.6859999895095825 L -23.225000381469727 -5.931000232696533 L -21 -9.643155097961426 L -20.507999420166016 -10.46399974822998 L -18.24799919128418 -15.241999626159668 L -16.54564094543457 -20 L -16.468000411987305 -20.216999053955078 L -15.649065017700195 -23.48699951171875 L -15.298029899597168 -23.48699951171875 L -14.348104476928711 -23.48699951171875 L -14.14900016784668 -23.48699951171875 L -10.503050804138184 -23.48699951171875 L -9.99780559539795 -23.48699951171875 L -9.152000427246094 -23.48699951171875 L -9.140999794006348 -23.48699951171875 L -9.140999794006348 -25.851999282836914 L -9.152000427246094 -25.851999282836914 L -9.910323143005371 -25.851999282836914 L -10.062132835388184 -25.851999282836914 L -14.14900016784668 -25.851999282836914 L -14.451859474182129 -25.851999282836914 L -15.056777000427246 -25.851999282836914 L -15.108596801757812 -25.851999282836914 L -14.407999992370605 -30.57200050354004 L -14.152000427246094 -35.78886413574219 L -14.152000427246094 -35.911136627197266 L -14.407999992370605 -41.12799835205078 L -15.108596801757812 -45.847999572753906 L -14.639617919921875 -45.847999572753906 L -14.14900016784668 -45.847999572753906 L -10.062132835388184 -45.847999572753906 L -9.642539978027344 -45.847999572753906 L -9.152000427246094 -45.847999572753906 L -9.140999794006348 -45.847999572753906 L -9.140999794006348 -48.21200180053711 L -9.152000427246094 -48.21200180053711 L -9.758526802062988 -48.21200180053711 L -10.412615776062012 -48.21200180053711 L -10.502799987792969 -48.21200180053711 L -14.14900016784668 -48.21200180053711 L -14.755623817443848 -48.21200180053711 L -15.459488868713379 -48.21200180053711 L -15.64881420135498 -48.21200180053711 M -77 16 L -77 11 L -77 9 L -77 -20 L -77 -50.720001220703125 L -77 -77 L -72.00299835205078 -77 L -68.99800109863281 -77 L -67 -77 L -67 -71.00299835205078 L -68.99800109863281 -71.00299835205078 L -68.99800109863281 -74.00299835205078 L -72.00299835205078 -74.00299835205078 L -72.00299835205078 -70.99800109863281 L -72.00299835205078 -65.99800109863281 L -68.99800109863281 -65.99800109863281 L -67 -65.99800109863281 L -67 -61 L -67 -58 L -67 -50.720001220703125 L -67 -20 L -67 11 L -62 11 L -57 11 L -57 16 L -65.53600311279297 16 L -77 16 M -88 9 L -88 -20 L -88 -50.720001220703125 L -88 -77 L -88 -79 L -88 -84 L -68 -84 L -68 -79 L -78 -79 L -78 -77 L -78 -50.720001220703125 L -78 -20 L -78 -2.003000020980835 L -79.99800109863281 -2.003000020980835 L -83.00299835205078 -2.003000020980835 L -83.00299835205078 2.997999906539917 L -83.00299835205078 6.002999782562256 L -79.99800109863281 6.002999782562256 L -79.99800109863281 3.003000020980835 L -78 3.003000020980835 L -78 9 L -79.99800109863281 9 L -83.00299835205078 9 L -88 9 M -32 -14 L -32 -11 L -52 -11 L -62 -11 L -62 -20 L -62 -22.678096771240234 L -62 -49.84539794921875 L -57.35900115966797 -49.027000427246094 L -57.0608024597168 -50.720001220703125 L -56.49100112915039 -53.95500183105469 L -62 -54.92659378051758 L -62 -58 L -62 -61 L -61.951969146728516 -61 L -52 -59.24561309814453 L -52 -58 L -52 -50.720001220703125 L -52 -20 L -52 -14 L -32 -14 M -31 -14 L -31 -20 L -31 -50.720001220703125 L -31 -58 L -51 -58 L -51 -61 L -31 -61 L -21 -61 L -21 -50.720001220703125 L -21 -49.321903228759766 L -21 -22.15460205078125 L -25.641000747680664 -22.972999572753906 L -26.164653778076172 -20 L -26.509000778198242 -18.045000076293945 L -21 -17.07340431213379 L -21 -11 L -21.04802894592285 -11 L -27.548053741455078 -12.145859718322754 L -31 -12.754387855529785 L -31 -14 M -43.00299835205078 -25.363000869750977 L -43.00299835205078 -22.99799919128418 L -39.99800109863281 -22.99799919128418 L -39.99800109863281 -25.363000869750977 L -43.00299835205078 -25.363000869750977 M -43.00299835205078 -47.722999572753906 L -43.00299835205078 -45.358001708984375 L -39.99800109863281 -45.358001708984375 L -39.99800109863281 -47.722999572753906 L -43.00299835205078 -47.722999572753906 z" fill="none" stroke="rgb(0,0,255)" stroke-width="0.01mm" />
</svg>